# xmcd
#
# Track frame offsets: 
#        150
#        13130
#        27767
#        42097
#        54857
#        77050
#        88575
#        105357
#        116857
#        130607
#
# Disc length: 1987 seconds
#
# Revision: 2
# Processed by: cddbd v1.4PL0 Copyright (c) Steve Scherf et al.
# Submitted via: ExactAudioCopy v0.90b2
#
DISCID=6e07c10a
DTITLE=The O'Kanes - The O'Kanes
DYEAR=1900
DGENRE=Country
TTITLE0=Oh Darlin' (Why Don't You Care For Me No More)
TTITLE1=Just Lovin' You
TTITLE2=Daddies Need To Grow Up Too
TTITLE3=Can't Stop My Heart From Lovin' You
TTITLE4=Bluegrass Blues
TTITLE5=Oh Lonesome You
TTITLE6=When We're Gone, Long Gone
TTITLE7=That's All Right Mama
TTITLE8=Gonna Walk That Line
TTITLE9=When I Found You
EXTD=
EXTT0=
EXTT1=
EXTT2=
EXTT3=
EXTT4=
EXTT5=
EXTT6=
EXTT7=
EXTT8=
EXTT9=
PLAYORDER=
